<?xml version="1.0" encoding="UTF-8"?>
<svg xmlns="http://www.w3.org/2000/svg" viewBox="0 0 320 200" role="img" aria-hidden="true">
  <defs>
    <linearGradient id="bg" x1="0" y1="0" x2="1" y2="1">
      <stop offset="0%" stop-color="#fffbeb"/>
      <stop offset="100%" stop-color="#fef3c7"/>
    </linearGradient>
    <linearGradient id="shine" x1="0" y1="0" x2="1" y2="1">
      <stop offset="0%" stop-color="#ffffff" stop-opacity="0.65"/>
      <stop offset="100%" stop-color="#ffffff" stop-opacity="0"/>
    </linearGradient>
    <filter id="shadow" x="-20%" y="-20%" width="140%" height="140%">
      <feDropShadow dx="0" dy="8" stdDeviation="10" flood-color="#0f172a" flood-opacity="0.12"/>
    </filter>
  </defs>
  <rect width="320" height="200" rx="20" fill="url(#bg)"/>
  <circle cx="274" cy="26" r="54" fill="#eab308" opacity="0.14"/>
  <circle cx="44" cy="182" r="58" fill="#f59e0b" opacity="0.16"/>
  <path d="M18 20 C56 4, 104 16, 128 40 C92 44, 52 54, 20 84 Z" fill="url(#shine)" opacity="0.55"/>
  <g filter="url(#shadow)">
      <g transform="translate(54 56)">
        <ellipse cx="100" cy="86" rx="70" ry="22" fill="#d1d5db"/>
        <path d="M30 86 C30 48, 170 48, 170 86 C170 110, 146 122, 100 122 C54 122, 30 110, 30 86Z" fill="#ffffff"/>
        <ellipse cx="100" cy="78" rx="58" ry="16" fill="#fde68a"/>
        <path d="M182 22 L214 64" stroke="#94a3b8" stroke-width="7" stroke-linecap="round"/>
        <ellipse cx="218" cy="70" rx="18" ry="10" fill="#cbd5e1" transform="rotate(22 218 70)"/>
      </g></g>
</svg>
