<?xml version="1.0" encoding="UTF-8"?>
<svg xmlns="http://www.w3.org/2000/svg" viewBox="0 0 320 200" role="img" aria-hidden="true">
  <defs>
    <linearGradient id="bg" x1="0" y1="0" x2="1" y2="1">
      <stop offset="0%" stop-color="#fff7ed"/>
      <stop offset="100%" stop-color="#ffedd5"/>
    </linearGradient>
    <linearGradient id="shine" x1="0" y1="0" x2="1" y2="1">
      <stop offset="0%" stop-color="#ffffff" stop-opacity="0.65"/>
      <stop offset="100%" stop-color="#ffffff" stop-opacity="0"/>
    </linearGradient>
    <filter id="shadow" x="-20%" y="-20%" width="140%" height="140%">
      <feDropShadow dx="0" dy="8" stdDeviation="10" flood-color="#0f172a" flood-opacity="0.12"/>
    </filter>
  </defs>
  <rect width="320" height="200" rx="20" fill="url(#bg)"/>
  <circle cx="274" cy="26" r="54" fill="#ea580c" opacity="0.14"/>
  <circle cx="44" cy="182" r="58" fill="#fb923c" opacity="0.16"/>
  <path d="M18 20 C56 4, 104 16, 128 40 C92 44, 52 54, 20 84 Z" fill="url(#shine)" opacity="0.55"/>
  <g filter="url(#shadow)">
      <g transform="translate(52 56)">
        <ellipse cx="108" cy="84" rx="74" ry="24" fill="#d1d5db"/>
        <path d="M34 84 C34 42, 182 42, 182 84 C182 110, 156 126, 108 126 C60 126, 34 110, 34 84Z" fill="#ffffff"/>
        <ellipse cx="108" cy="76" rx="62" ry="18" fill="#fb923c"/>
        <circle cx="84" cy="74" r="8" fill="#16a34a"/>
        <rect x="108" y="64" width="16" height="16" rx="4" fill="#f59e0b"/>
        <circle cx="130" cy="80" r="7" fill="#ef4444"/>
      </g></g>
</svg>
