<?xml version="1.0" encoding="UTF-8"?>
<svg xmlns="http://www.w3.org/2000/svg" viewBox="0 0 320 200" role="img" aria-hidden="true">
  <defs>
    <linearGradient id="bg" x1="0" y1="0" x2="1" y2="1">
      <stop offset="0%" stop-color="#ecfeff"/>
      <stop offset="100%" stop-color="#cffafe"/>
    </linearGradient>
    <linearGradient id="shine" x1="0" y1="0" x2="1" y2="1">
      <stop offset="0%" stop-color="#ffffff" stop-opacity="0.65"/>
      <stop offset="100%" stop-color="#ffffff" stop-opacity="0"/>
    </linearGradient>
    <filter id="shadow" x="-20%" y="-20%" width="140%" height="140%">
      <feDropShadow dx="0" dy="8" stdDeviation="10" flood-color="#0f172a" flood-opacity="0.12"/>
    </filter>
  </defs>
  <rect width="320" height="200" rx="20" fill="url(#bg)"/>
  <circle cx="274" cy="26" r="54" fill="#06b6d4" opacity="0.14"/>
  <circle cx="44" cy="182" r="58" fill="#67e8f9" opacity="0.16"/>
  <path d="M18 20 C56 4, 104 16, 128 40 C92 44, 52 54, 20 84 Z" fill="url(#shine)" opacity="0.55"/>
  <g filter="url(#shadow)">
      <g transform="translate(56 40)">
        <rect x="20" y="26" width="74" height="98" rx="14" fill="#ffffff"/>
        <rect x="26" y="48" width="62" height="68" rx="10" fill="#e0f2fe"/>
        <path d="M94 36 L126 12" stroke="#0ea5e9" stroke-width="5" stroke-linecap="round"/>
        <path d="M128 16 C138 18, 146 26, 148 36" stroke="#0ea5e9" stroke-width="4" fill="none" stroke-linecap="round"/>
        <circle cx="162" cy="86" r="24" fill="#fde68a"/>
        <path d="M152 68 C166 68, 178 80, 176 96 C164 96, 154 88, 152 68Z" fill="#22c55e"/>
        <line x1="154" y1="92" x2="170" y2="76" stroke="#f59e0b" stroke-width="3" opacity="0.6"/>
      </g></g>
</svg>
