<?xml version="1.0" encoding="UTF-8"?>
<svg xmlns="http://www.w3.org/2000/svg" viewBox="0 0 320 200" role="img" aria-hidden="true">
  <defs>
    <linearGradient id="bg" x1="0" y1="0" x2="1" y2="1">
      <stop offset="0%" stop-color="#fff7ed"/>
      <stop offset="100%" stop-color="#fee2e2"/>
    </linearGradient>
    <linearGradient id="shine" x1="0" y1="0" x2="1" y2="1">
      <stop offset="0%" stop-color="#ffffff" stop-opacity="0.65"/>
      <stop offset="100%" stop-color="#ffffff" stop-opacity="0"/>
    </linearGradient>
    <filter id="shadow" x="-20%" y="-20%" width="140%" height="140%">
      <feDropShadow dx="0" dy="8" stdDeviation="10" flood-color="#0f172a" flood-opacity="0.12"/>
    </filter>
  </defs>
  <rect width="320" height="200" rx="20" fill="url(#bg)"/>
  <circle cx="274" cy="26" r="54" fill="#f97316" opacity="0.14"/>
  <circle cx="44" cy="182" r="58" fill="#ef4444" opacity="0.16"/>
  <path d="M18 20 C56 4, 104 16, 128 40 C92 44, 52 54, 20 84 Z" fill="url(#shine)" opacity="0.55"/>
  <g filter="url(#shadow)">
      <g transform="translate(64 44)">
        <circle cx="62" cy="66" r="34" fill="#ef4444"/>
        <ellipse cx="58" cy="28" rx="6" ry="12" fill="#7c3f00" transform="rotate(-8 58 28)"/>
        <path d="M62 28 C76 8, 98 14, 104 28 C88 34, 72 36, 62 28Z" fill="#22c55e"/>
        <circle cx="150" cy="88" r="28" fill="#f59e0b"/>
        <circle cx="141" cy="79" r="8" fill="#fde68a" opacity="0.65"/>
        <path d="M146 54 C152 44, 166 44, 172 54 C162 60, 152 60, 146 54Z" fill="#16a34a"/>
      </g></g>
</svg>
