<?xml version="1.0" encoding="UTF-8"?>
<svg xmlns="http://www.w3.org/2000/svg" viewBox="0 0 320 200" role="img" aria-hidden="true">
  <defs>
    <linearGradient id="bg" x1="0" y1="0" x2="1" y2="1">
      <stop offset="0%" stop-color="#fefce8"/>
      <stop offset="100%" stop-color="#ecfccb"/>
    </linearGradient>
    <linearGradient id="shine" x1="0" y1="0" x2="1" y2="1">
      <stop offset="0%" stop-color="#ffffff" stop-opacity="0.65"/>
      <stop offset="100%" stop-color="#ffffff" stop-opacity="0"/>
    </linearGradient>
    <filter id="shadow" x="-20%" y="-20%" width="140%" height="140%">
      <feDropShadow dx="0" dy="8" stdDeviation="10" flood-color="#0f172a" flood-opacity="0.12"/>
    </filter>
  </defs>
  <rect width="320" height="200" rx="20" fill="url(#bg)"/>
  <circle cx="274" cy="26" r="54" fill="#eab308" opacity="0.14"/>
  <circle cx="44" cy="182" r="58" fill="#84cc16" opacity="0.16"/>
  <path d="M18 20 C56 4, 104 16, 128 40 C92 44, 52 54, 20 84 Z" fill="url(#shine)" opacity="0.55"/>
  <g filter="url(#shadow)">
      <g transform="translate(70 50)">
        <ellipse cx="90" cy="108" rx="74" ry="18" fill="#e5e7eb"/>
        <path d="M32 72 C32 42, 148 42, 148 72 V92 C148 118, 32 118, 32 92 Z" fill="#facc15" opacity="0.82"/>
        <path d="M32 72 C44 58, 58 64, 70 72 C82 80, 98 64, 110 72 C122 80, 136 64, 148 72" stroke="#fef08a" stroke-width="5" fill="none"/>
        <path d="M52 40 C68 18, 112 18, 128 40" stroke="#86efac" stroke-width="6" fill="none" stroke-linecap="round"/>
      </g></g>
</svg>
