<?xml version="1.0" encoding="UTF-8"?>
<svg xmlns="http://www.w3.org/2000/svg" viewBox="0 0 320 200" role="img" aria-hidden="true">
  <defs>
    <linearGradient id="bg" x1="0" y1="0" x2="1" y2="1">
      <stop offset="0%" stop-color="#fff7ed"/>
      <stop offset="100%" stop-color="#ffedd5"/>
    </linearGradient>
    <linearGradient id="shine" x1="0" y1="0" x2="1" y2="1">
      <stop offset="0%" stop-color="#ffffff" stop-opacity="0.65"/>
      <stop offset="100%" stop-color="#ffffff" stop-opacity="0"/>
    </linearGradient>
    <filter id="shadow" x="-20%" y="-20%" width="140%" height="140%">
      <feDropShadow dx="0" dy="8" stdDeviation="10" flood-color="#0f172a" flood-opacity="0.12"/>
    </filter>
  </defs>
  <rect width="320" height="200" rx="20" fill="url(#bg)"/>
  <circle cx="274" cy="26" r="54" fill="#fb923c" opacity="0.14"/>
  <circle cx="44" cy="182" r="58" fill="#fdba74" opacity="0.16"/>
  <path d="M18 20 C56 4, 104 16, 128 40 C92 44, 52 54, 20 84 Z" fill="url(#shine)" opacity="0.55"/>
  <g filter="url(#shadow)">
      <g transform="translate(56 52)">
        <path d="M38 92 C12 72, 20 34, 52 24 C80 14, 118 24, 136 46 C154 68, 138 104, 96 110 C72 114, 52 108, 38 92Z" fill="#eab308" opacity="0.22"/>
        <path d="M40 88 C16 66, 26 34, 62 30 C92 26, 118 40, 128 62 C138 82, 118 102, 88 104 C66 106, 50 100, 40 88Z" fill="#fca5a5"/>
        <path d="M58 76 C70 64, 96 64, 110 78" stroke="#fee2e2" stroke-width="6" fill="none" stroke-linecap="round"/>
        <path d="M178 32 C196 20, 224 28, 234 50 C244 70, 228 98, 202 102 C176 106, 154 86, 160 58 C162 48, 168 38, 178 32Z" fill="#f5d0a0"/>
        <path d="M178 44 C192 36, 214 42, 220 60" stroke="#fef3c7" stroke-width="5" fill="none" stroke-linecap="round"/>
      </g></g>
</svg>
