<?xml version="1.0" encoding="UTF-8"?>
<svg xmlns="http://www.w3.org/2000/svg" viewBox="0 0 320 200" role="img" aria-hidden="true">
  <defs>
    <linearGradient id="bg" x1="0" y1="0" x2="1" y2="1">
      <stop offset="0%" stop-color="#eef2ff"/>
      <stop offset="100%" stop-color="#dbeafe"/>
    </linearGradient>
    <linearGradient id="shine" x1="0" y1="0" x2="1" y2="1">
      <stop offset="0%" stop-color="#ffffff" stop-opacity="0.65"/>
      <stop offset="100%" stop-color="#ffffff" stop-opacity="0"/>
    </linearGradient>
    <filter id="shadow" x="-20%" y="-20%" width="140%" height="140%">
      <feDropShadow dx="0" dy="8" stdDeviation="10" flood-color="#0f172a" flood-opacity="0.12"/>
    </filter>
  </defs>
  <rect width="320" height="200" rx="20" fill="url(#bg)"/>
  <circle cx="274" cy="26" r="54" fill="#3b82f6" opacity="0.14"/>
  <circle cx="44" cy="182" r="58" fill="#60a5fa" opacity="0.16"/>
  <path d="M18 20 C56 4, 104 16, 128 40 C92 44, 52 54, 20 84 Z" fill="url(#shine)" opacity="0.55"/>
  <g filter="url(#shadow)">
      <g transform="translate(56 64)">
        <path d="M32 42 C58 10, 122 6, 164 36 C182 34, 200 22, 226 18 C214 34, 212 46, 226 62 C198 58, 182 46, 164 44 C122 74, 58 70, 32 42Z" fill="#60a5fa"/>
        <circle cx="126" cy="36" r="4" fill="#1e3a8a"/>
        <path d="M88 24 C100 12, 118 10, 132 16" stroke="#bfdbfe" stroke-width="4" fill="none" stroke-linecap="round"/>
        <path d="M84 54 C104 66, 124 68, 146 60" stroke="#bfdbfe" stroke-width="4" fill="none" stroke-linecap="round"/>
      </g></g>
</svg>
