<?xml version="1.0" encoding="UTF-8"?>
<svg xmlns="http://www.w3.org/2000/svg" viewBox="0 0 320 200" role="img" aria-hidden="true">
  <defs>
    <linearGradient id="bg" x1="0" y1="0" x2="1" y2="1">
      <stop offset="0%" stop-color="#f0fdf4"/>
      <stop offset="100%" stop-color="#ecfccb"/>
    </linearGradient>
    <linearGradient id="shine" x1="0" y1="0" x2="1" y2="1">
      <stop offset="0%" stop-color="#ffffff" stop-opacity="0.65"/>
      <stop offset="100%" stop-color="#ffffff" stop-opacity="0"/>
    </linearGradient>
    <filter id="shadow" x="-20%" y="-20%" width="140%" height="140%">
      <feDropShadow dx="0" dy="8" stdDeviation="10" flood-color="#0f172a" flood-opacity="0.12"/>
    </filter>
  </defs>
  <rect width="320" height="200" rx="20" fill="url(#bg)"/>
  <circle cx="274" cy="26" r="54" fill="#65a30d" opacity="0.14"/>
  <circle cx="44" cy="182" r="58" fill="#22c55e" opacity="0.16"/>
  <path d="M18 20 C56 4, 104 16, 128 40 C92 44, 52 54, 20 84 Z" fill="url(#shine)" opacity="0.55"/>
  <g filter="url(#shadow)">
      <g transform="translate(52 58)">
        <path d="M24 74 C40 34, 78 30, 104 54 C122 70, 148 70, 168 52 C180 42, 196 54, 188 70 C172 102, 126 110, 84 100 C54 92, 34 92, 24 74Z" fill="#84cc16"/>
        <ellipse cx="76" cy="70" rx="12" ry="8" fill="#65a30d"/>
        <ellipse cx="106" cy="76" rx="12" ry="8" fill="#65a30d"/>
        <ellipse cx="136" cy="72" rx="12" ry="8" fill="#65a30d"/>
      </g></g>
</svg>
