<?xml version="1.0" encoding="UTF-8"?>
<svg xmlns="http://www.w3.org/2000/svg" viewBox="0 0 320 200" role="img" aria-hidden="true">
  <defs>
    <linearGradient id="bg" x1="0" y1="0" x2="1" y2="1">
      <stop offset="0%" stop-color="#eff6ff"/>
      <stop offset="100%" stop-color="#dbeafe"/>
    </linearGradient>
    <linearGradient id="shine" x1="0" y1="0" x2="1" y2="1">
      <stop offset="0%" stop-color="#ffffff" stop-opacity="0.65"/>
      <stop offset="100%" stop-color="#ffffff" stop-opacity="0"/>
    </linearGradient>
    <filter id="shadow" x="-20%" y="-20%" width="140%" height="140%">
      <feDropShadow dx="0" dy="8" stdDeviation="10" flood-color="#0f172a" flood-opacity="0.12"/>
    </filter>
  </defs>
  <rect width="320" height="200" rx="20" fill="url(#bg)"/>
  <circle cx="274" cy="26" r="54" fill="#60a5fa" opacity="0.14"/>
  <circle cx="44" cy="182" r="58" fill="#93c5fd" opacity="0.16"/>
  <path d="M18 20 C56 4, 104 16, 128 40 C92 44, 52 54, 20 84 Z" fill="url(#shine)" opacity="0.55"/>
  <g filter="url(#shadow)">
      <g transform="translate(72 38)">
        <path d="M30 20 H72 L82 38 V126 H20 V38 Z" fill="#ffffff"/>
        <path d="M30 20 H72 L80 34 H22 Z" fill="#bfdbfe"/>
        <rect x="96" y="56" width="44" height="68" rx="10" fill="#f8fafc"/>
        <rect x="102" y="62" width="32" height="48" rx="8" fill="#dbeafe"/>
        <circle cx="158" cy="100" r="24" fill="#ffffff"/>
        <path d="M144 96 C148 86, 168 86, 172 96" stroke="#93c5fd" stroke-width="5" fill="none" stroke-linecap="round"/>
        <path d="M140 112 C148 122, 168 122, 176 112" stroke="#93c5fd" stroke-width="5" fill="none" stroke-linecap="round"/>
      </g></g>
</svg>
