<?xml version="1.0" encoding="UTF-8"?>
<svg xmlns="http://www.w3.org/2000/svg" viewBox="0 0 320 200" role="img" aria-hidden="true">
  <defs>
    <linearGradient id="bg" x1="0" y1="0" x2="1" y2="1">
      <stop offset="0%" stop-color="#fffbeb"/>
      <stop offset="100%" stop-color="#fde68a"/>
    </linearGradient>
    <linearGradient id="shine" x1="0" y1="0" x2="1" y2="1">
      <stop offset="0%" stop-color="#ffffff" stop-opacity="0.65"/>
      <stop offset="100%" stop-color="#ffffff" stop-opacity="0"/>
    </linearGradient>
    <filter id="shadow" x="-20%" y="-20%" width="140%" height="140%">
      <feDropShadow dx="0" dy="8" stdDeviation="10" flood-color="#0f172a" flood-opacity="0.12"/>
    </filter>
  </defs>
  <rect width="320" height="200" rx="20" fill="url(#bg)"/>
  <circle cx="274" cy="26" r="54" fill="#d97706" opacity="0.14"/>
  <circle cx="44" cy="182" r="58" fill="#f59e0b" opacity="0.16"/>
  <path d="M18 20 C56 4, 104 16, 128 40 C92 44, 52 54, 20 84 Z" fill="url(#shine)" opacity="0.55"/>
  <g filter="url(#shadow)">
      <g transform="translate(66 54)">
        <path d="M42 104 C20 90, 20 54, 44 38 C66 24, 92 44, 92 72 C92 106, 64 118, 42 104Z" fill="#b45309"/>
        <path d="M42 104 C58 84, 64 60, 58 32" stroke="#fef3c7" stroke-width="4" fill="none" opacity="0.7"/>
        <ellipse cx="142" cy="72" rx="20" ry="14" fill="#92400e"/>
        <ellipse cx="176" cy="84" rx="9" ry="9" fill="#a16207"/>
        <ellipse cx="196" cy="64" rx="7" ry="7" fill="#ca8a04"/>
        <ellipse cx="204" cy="88" rx="6" ry="6" fill="#d97706"/>
      </g></g>
</svg>
