<?xml version="1.0" encoding="UTF-8"?>
<svg xmlns="http://www.w3.org/2000/svg" viewBox="0 0 320 200" role="img" aria-hidden="true">
  <defs>
    <linearGradient id="bg" x1="0" y1="0" x2="1" y2="1">
      <stop offset="0%" stop-color="#f0fdf4"/>
      <stop offset="100%" stop-color="#dcfce7"/>
    </linearGradient>
    <linearGradient id="shine" x1="0" y1="0" x2="1" y2="1">
      <stop offset="0%" stop-color="#ffffff" stop-opacity="0.65"/>
      <stop offset="100%" stop-color="#ffffff" stop-opacity="0"/>
    </linearGradient>
    <filter id="shadow" x="-20%" y="-20%" width="140%" height="140%">
      <feDropShadow dx="0" dy="8" stdDeviation="10" flood-color="#0f172a" flood-opacity="0.12"/>
    </filter>
  </defs>
  <rect width="320" height="200" rx="20" fill="url(#bg)"/>
  <circle cx="274" cy="26" r="54" fill="#22c55e" opacity="0.14"/>
  <circle cx="44" cy="182" r="58" fill="#86efac" opacity="0.16"/>
  <path d="M18 20 C56 4, 104 16, 128 40 C92 44, 52 54, 20 84 Z" fill="url(#shine)" opacity="0.55"/>
  <g filter="url(#shadow)">
      <g transform="translate(58 54)">
        <path d="M30 46 H122 V96 C122 112, 110 124, 94 124 H58 C42 124, 30 112, 30 96 Z" fill="#ffffff"/>
        <path d="M38 56 H114 V92 C114 102, 106 110, 96 110 H56 C46 110, 38 102, 38 92 Z" fill="#d9f99d"/>
        <path d="M122 58 C146 58, 154 70, 154 84 C154 98, 146 108, 130 108" stroke="#6b7280" stroke-width="5" fill="none"/>
        <path d="M62 24 C52 8, 64 -4, 70 -18" stroke="#a7f3d0" stroke-width="4" fill="none" stroke-linecap="round"/>
        <path d="M88 20 C78 4, 90 -8, 96 -20" stroke="#a7f3d0" stroke-width="4" fill="none" stroke-linecap="round"/>
      </g></g>
</svg>
