<?xml version="1.0" encoding="UTF-8"?>
<svg xmlns="http://www.w3.org/2000/svg" viewBox="0 0 320 200" role="img" aria-hidden="true">
  <defs>
    <linearGradient id="bg" x1="0" y1="0" x2="1" y2="1">
      <stop offset="0%" stop-color="#ecfdf5"/>
      <stop offset="100%" stop-color="#dcfce7"/>
    </linearGradient>
    <linearGradient id="shine" x1="0" y1="0" x2="1" y2="1">
      <stop offset="0%" stop-color="#ffffff" stop-opacity="0.65"/>
      <stop offset="100%" stop-color="#ffffff" stop-opacity="0"/>
    </linearGradient>
    <filter id="shadow" x="-20%" y="-20%" width="140%" height="140%">
      <feDropShadow dx="0" dy="8" stdDeviation="10" flood-color="#0f172a" flood-opacity="0.12"/>
    </filter>
  </defs>
  <rect width="320" height="200" rx="20" fill="url(#bg)"/>
  <circle cx="274" cy="26" r="54" fill="#16a34a" opacity="0.14"/>
  <circle cx="44" cy="182" r="58" fill="#14b8a6" opacity="0.16"/>
  <path d="M18 20 C56 4, 104 16, 128 40 C92 44, 52 54, 20 84 Z" fill="url(#shine)" opacity="0.55"/>
  <g filter="url(#shadow)">
      <g transform="translate(62 48)">
        <path d="M44 106 C16 88, 20 52, 52 42 C82 34, 96 74, 74 98 C66 108, 54 112, 44 106Z" fill="#f97316"/>
        <path d="M62 44 C54 26, 68 10, 86 14 C84 34, 76 42, 62 44Z" fill="#22c55e"/>
        <path d="M68 54 C84 42, 108 44, 120 62 C132 80, 126 104, 106 112 C84 120, 60 106, 54 84 C50 72, 56 60, 68 54Z" fill="#16a34a"/>
        <path d="M72 76 C84 64, 104 64, 112 82" stroke="#bbf7d0" stroke-width="6" fill="none" stroke-linecap="round"/>
      </g></g>
</svg>
