<?xml version="1.0" encoding="UTF-8"?>
<svg xmlns="http://www.w3.org/2000/svg" viewBox="0 0 320 200" role="img" aria-hidden="true">
  <defs>
    <linearGradient id="bg" x1="0" y1="0" x2="1" y2="1">
      <stop offset="0%" stop-color="#ecfeff"/>
      <stop offset="100%" stop-color="#dcfce7"/>
    </linearGradient>
    <linearGradient id="shine" x1="0" y1="0" x2="1" y2="1">
      <stop offset="0%" stop-color="#ffffff" stop-opacity="0.65"/>
      <stop offset="100%" stop-color="#ffffff" stop-opacity="0"/>
    </linearGradient>
    <filter id="shadow" x="-20%" y="-20%" width="140%" height="140%">
      <feDropShadow dx="0" dy="8" stdDeviation="10" flood-color="#0f172a" flood-opacity="0.12"/>
    </filter>
  </defs>
  <rect width="320" height="200" rx="20" fill="url(#bg)"/>
  <circle cx="272" cy="26" r="54" fill="#06b6d4" opacity="0.12"/>
  <circle cx="48" cy="182" r="58" fill="#22c55e" opacity="0.12"/>
  <path d="M18 20 C56 4, 104 16, 128 40 C92 44, 52 54, 20 84 Z" fill="url(#shine)" opacity="0.55"/>

  <g filter="url(#shadow)" transform="translate(34 26)">
    <!-- Water glass -->
    <g transform="translate(18 8)">
      <rect x="24" y="18" width="86" height="132" rx="16" fill="#ffffff"/>
      <path d="M32 64 H102 V142 H32 Z" fill="#93c5fd" opacity="0.72"/>
      <path d="M36 74 C46 68, 56 79, 66 74 C76 69, 86 79, 96 74 C106 69, 112 75, 118 74" stroke="#dbeafe" stroke-width="4" fill="none" opacity="0.9"/>
      <path d="M52 36 C60 30, 74 30, 82 36" stroke="#bfdbfe" stroke-width="4" fill="none" stroke-linecap="round"/>
    </g>

    <!-- Tea cup -->
    <g transform="translate(142 56)">
      <path d="M20 36 H112 V78 C112 96, 98 110, 80 110 H52 C34 110, 20 96, 20 78 Z" fill="#ffffff"/>
      <path d="M28 46 H104 V74 C104 86, 94 96, 82 96 H50 C38 96, 28 86, 28 74 Z" fill="#fde68a"/>
      <path d="M112 46 C132 46, 142 56, 142 70 C142 84, 132 92, 118 92" stroke="#6b7280" stroke-width="5" fill="none"/>
      <path d="M34 114 H128" stroke="#94a3b8" stroke-width="6" stroke-linecap="round"/>
      <path d="M52 20 C44 8, 52 -2, 58 -14" stroke="#a7f3d0" stroke-width="4" fill="none" stroke-linecap="round"/>
      <path d="M76 16 C68 4, 76 -6, 82 -18" stroke="#bfdbfe" stroke-width="4" fill="none" stroke-linecap="round"/>
    </g>
  </g>
</svg>
