<?xml version="1.0" encoding="UTF-8"?>
<svg xmlns="http://www.w3.org/2000/svg" viewBox="0 0 320 200" role="img" aria-hidden="true">
  <defs>
    <linearGradient id="bg" x1="0" y1="0" x2="1" y2="1">
      <stop offset="0%" stop-color="#eff6ff"/>
      <stop offset="100%" stop-color="#dbeafe"/>
    </linearGradient>
    <linearGradient id="shine" x1="0" y1="0" x2="1" y2="1">
      <stop offset="0%" stop-color="#ffffff" stop-opacity="0.65"/>
      <stop offset="100%" stop-color="#ffffff" stop-opacity="0"/>
    </linearGradient>
    <filter id="shadow" x="-20%" y="-20%" width="140%" height="140%">
      <feDropShadow dx="0" dy="8" stdDeviation="10" flood-color="#0f172a" flood-opacity="0.12"/>
    </filter>
  </defs>
  <rect width="320" height="200" rx="20" fill="url(#bg)"/>
  <circle cx="274" cy="26" r="54" fill="#0ea5e9" opacity="0.14"/>
  <circle cx="44" cy="182" r="58" fill="#60a5fa" opacity="0.16"/>
  <path d="M18 20 C56 4, 104 16, 128 40 C92 44, 52 54, 20 84 Z" fill="url(#shine)" opacity="0.55"/>
  <g filter="url(#shadow)">
      <g transform="translate(70 34)">
        <rect x="26" y="22" width="78" height="118" rx="16" fill="#ffffff"/>
        <path d="M34 62 H96 V132 H34 Z" fill="#93c5fd" opacity="0.65"/>
        <path d="M40 70 C52 64, 62 76, 74 70 C86 64, 94 76, 104 70" stroke="#dbeafe" stroke-width="4" fill="none" opacity="0.9"/>
        <path d="M162 44 C176 64, 186 80, 186 92 C186 112, 170 126, 150 126 C130 126, 114 112, 114 92 C114 80, 124 64, 138 44 C146 34, 154 34, 162 44Z" fill="#38bdf8" opacity="0.9"/>
        <circle cx="148" cy="90" r="8" fill="#bae6fd" opacity="0.7"/>
      </g></g>
</svg>
