<?xml version="1.0" encoding="UTF-8"?>
<svg xmlns="http://www.w3.org/2000/svg" viewBox="0 0 320 200" role="img" aria-hidden="true">
  <defs>
    <linearGradient id="bg" x1="0" y1="0" x2="1" y2="1">
      <stop offset="0%" stop-color="#fff7ed"/>
      <stop offset="100%" stop-color="#ffedd5"/>
    </linearGradient>
    <linearGradient id="shine" x1="0" y1="0" x2="1" y2="1">
      <stop offset="0%" stop-color="#ffffff" stop-opacity="0.65"/>
      <stop offset="100%" stop-color="#ffffff" stop-opacity="0"/>
    </linearGradient>
    <filter id="shadow" x="-20%" y="-20%" width="140%" height="140%">
      <feDropShadow dx="0" dy="8" stdDeviation="10" flood-color="#0f172a" flood-opacity="0.12"/>
    </filter>
  </defs>
  <rect width="320" height="200" rx="20" fill="url(#bg)"/>
  <circle cx="274" cy="26" r="54" fill="#f59e0b" opacity="0.14"/>
  <circle cx="44" cy="182" r="58" fill="#fdba74" opacity="0.16"/>
  <path d="M18 20 C56 4, 104 16, 128 40 C92 44, 52 54, 20 84 Z" fill="url(#shine)" opacity="0.55"/>
  <g filter="url(#shadow)">
      <g transform="translate(70 46)">
        <path d="M34 100 V44 C34 24, 52 12, 76 12 C100 12, 118 24, 118 44 V100 Z" fill="#f1c27d"/>
        <rect x="44" y="40" width="64" height="52" rx="12" fill="#f7d9a7"/>
        <path d="M118 94 V52 C118 34, 132 26, 152 26 C172 26, 186 34, 186 52 V94 Z" fill="#eab676"/>
        <rect x="126" y="50" width="52" height="36" rx="10" fill="#f6d49f"/>
      </g></g>
</svg>
