<?xml version="1.0" encoding="UTF-8"?>
<svg xmlns="http://www.w3.org/2000/svg" viewBox="0 0 320 200" role="img" aria-hidden="true">
  <defs>
    <linearGradient id="bg" x1="0" y1="0" x2="1" y2="1">
      <stop offset="0%" stop-color="#faf5e4"/>
      <stop offset="100%" stop-color="#f5deb3"/>
    </linearGradient>
    <linearGradient id="shine" x1="0" y1="0" x2="1" y2="1">
      <stop offset="0%" stop-color="#ffffff" stop-opacity="0.65"/>
      <stop offset="100%" stop-color="#ffffff" stop-opacity="0"/>
    </linearGradient>
    <filter id="shadow" x="-20%" y="-20%" width="140%" height="140%">
      <feDropShadow dx="0" dy="8" stdDeviation="10" flood-color="#0f172a" flood-opacity="0.12"/>
    </filter>
  </defs>
  <rect width="320" height="200" rx="20" fill="url(#bg)"/>
  <circle cx="274" cy="26" r="54" fill="#a16207" opacity="0.14"/>
  <circle cx="44" cy="182" r="58" fill="#d97706" opacity="0.16"/>
  <path d="M18 20 C56 4, 104 16, 128 40 C92 44, 52 54, 20 84 Z" fill="url(#shine)" opacity="0.55"/>
  <g filter="url(#shadow)">
      <g transform="translate(54 48)">
        <rect x="26" y="44" width="94" height="74" rx="20" fill="#d6a15f"/>
        <rect x="34" y="52" width="78" height="58" rx="16" fill="#c08457"/>
        <circle cx="58" cy="76" r="5" fill="#fef3c7" opacity="0.7"/>
        <circle cx="84" cy="90" r="4" fill="#fef3c7" opacity="0.55"/>
        <g transform="translate(138 26)" stroke="#a16207" stroke-width="4" fill="none" stroke-linecap="round">
          <path d="M14 94 V8"/>
          <path d="M14 24 C26 16, 30 26, 22 34"/>
          <path d="M14 38 C30 30, 34 42, 22 50"/>
          <path d="M14 52 C28 46, 32 56, 22 64"/>
          <path d="M14 24 C2 16, -2 26, 6 34"/>
          <path d="M14 38 C-2 30, -6 42, 6 50"/>
          <path d="M14 52 C0 46, -4 56, 6 64"/>
        </g>
      </g></g>
</svg>
