<?xml version="1.0" encoding="UTF-8"?>
<svg xmlns="http://www.w3.org/2000/svg" viewBox="0 0 320 200" role="img" aria-hidden="true">
  <defs>
    <linearGradient id="bg" x1="0" y1="0" x2="1" y2="1">
      <stop offset="0%" stop-color="#f5f3ff"/>
      <stop offset="100%" stop-color="#ede9fe"/>
    </linearGradient>
    <linearGradient id="shine" x1="0" y1="0" x2="1" y2="1">
      <stop offset="0%" stop-color="#ffffff" stop-opacity="0.65"/>
      <stop offset="100%" stop-color="#ffffff" stop-opacity="0"/>
    </linearGradient>
    <filter id="shadow" x="-20%" y="-20%" width="140%" height="140%">
      <feDropShadow dx="0" dy="8" stdDeviation="10" flood-color="#0f172a" flood-opacity="0.12"/>
    </filter>
  </defs>
  <rect width="320" height="200" rx="20" fill="url(#bg)"/>
  <circle cx="274" cy="26" r="54" fill="#8b5cf6" opacity="0.14"/>
  <circle cx="44" cy="182" r="58" fill="#c4b5fd" opacity="0.16"/>
  <path d="M18 20 C56 4, 104 16, 128 40 C92 44, 52 54, 20 84 Z" fill="url(#shine)" opacity="0.55"/>
  <g filter="url(#shadow)">
      <g transform="translate(72 42)">
        <path d="M34 38 H132 L118 128 H48 Z" fill="#ffffff"/>
        <ellipse cx="83" cy="38" rx="49" ry="12" fill="#ddd6fe"/>
        <ellipse cx="83" cy="42" rx="40" ry="8" fill="#f5f3ff"/>
        <path d="M146 20 C162 18, 168 34, 158 48 L146 72" stroke="#94a3b8" stroke-width="6" fill="none" stroke-linecap="round"/>
        <circle cx="62" cy="54" r="4" fill="#e9d5ff"/>
        <circle cx="90" cy="60" r="3" fill="#e9d5ff"/>
      </g></g>
</svg>
